# xmcd CD database file
#
# Track frame offsets:
#	150
#	17455
#	33929
#	50337
#	68799
#	81272
#	95017
#	111903
#	130827
#	150745
#
# Disc length: 2222 seconds
#
# Revision: 0
# Processed by: cddbd v1.5.2PL0 Copyright (c) Steve Scherf et al.
# Submitted via: CDex 1.79
#
DISCID=7908ac0a
DTITLE=Shawna Russell - Shawna Russell
DYEAR=2011
DGENRE=Country
TTITLE0=Sounds Like A Party
TTITLE1=Waitin' On Sunrise
TTITLE2=Phoenix
TTITLE3=Was It Good For You
TTITLE4=Get Right Or Get Left
TTITLE5=Jeremiah
TTITLE6=Everybody's Got A Story
TTITLE7=Rumor
TTITLE8=Cemetery Hill
TTITLE9=Carry Me Away
EXTD=YEAR: 2011
EXTT0=
EXTT1=
EXTT2=
EXTT3=
EXTT4=
EXTT5=
EXTT6=
EXTT7=
EXTT8=
EXTT9=
PLAYORDER=
